<!--?xml version="1.0" encoding="utf-8"?-->
<!-- Generator: Adobe Illustrator 18.1.1, SVG Export Plug-In . SVG Version: 6.00 Build 0)  -->

<svg version="1.1" id="_x31_0" xmlns="http://www.w3.org/2000/svg" xmlns:xlink="http://www.w3.org/1999/xlink" x="0px" y="0px" viewBox="0 0 512 512" style="width: 64px; height: 64px; opacity: 1;" xml:space="preserve">
<style type="text/css">
	.st0{fill:#374149;}
</style>
<g>
	<path class="st0" d="M451.629,195.629H308.336l-101.875-0.114l53.84-53.836c4.32-4.316,7.946-9.234,10.778-14.617
		c1.82-3.469,3.312-7.133,4.426-10.902c1.648-5.578,2.484-11.356,2.484-17.172c0-5.817-0.836-11.594-2.488-17.18
		c-2.84-9.59-8.094-18.41-15.195-25.508c-5.762-5.762-12.485-10.222-19.977-13.262c-3.602-1.461-7.371-2.578-11.191-3.316
		c-3.782-0.73-7.66-1.106-11.52-1.106c-3.859,0-7.734,0.375-11.519,1.106c-11.836,2.293-22.614,8.023-31.164,16.578L17.519,213.711
		C6.222,225.008,0,240.028,0,256c0,15.972,6.222,30.992,17.519,42.289L174.934,455.7c11.398,11.406,26.558,17.683,42.683,17.683
		c16.126,0,31.286-6.278,42.684-17.68c4.32-4.316,7.946-9.23,10.774-14.613c1.824-3.469,3.316-7.137,4.43-10.906
		c1.648-5.574,2.484-11.351,2.484-17.168c0-5.816-0.836-11.598-2.488-17.18c-2.836-9.59-8.094-18.414-15.195-25.511l-31.676-31.672
		l-22.121-22.282h245.121c33.289,0,60.371-27.082,60.371-60.37C512,222.711,484.918,195.629,451.629,195.629z" style="fill: rgb(75, 75, 75);"></path>
</g>
</svg>
