<!--?xml version="1.0" encoding="utf-8"?-->
<!-- Generator: Adobe Illustrator 21.1.0, SVG Export Plug-In . SVG Version: 6.00 Build 0)  -->
<svg version="1.1" id="_x31_0" xmlns="http://www.w3.org/2000/svg" xmlns:xlink="http://www.w3.org/1999/xlink" x="0px" y="0px" viewBox="0 0 512 512" style="width: 48px; height: 48px; opacity: 1;" xml:space="preserve">
<style type="text/css">
	.st0{fill:#374149;}
</style>
<g>
	<rect x="91.121" y="189.967" class="st0" width="329.801" height="76.778" style="fill: rgb(75, 75, 75);"></rect>
	<path class="st0" d="M501.164,24.162H10.836C4.906,24.162,0,28.994,0,34.998V81.42v44.223V475.76
		c0,6.734,5.422,12.078,12.086,12.078h487.836c6.664,0,12.078-5.344,12.078-12.078V125.643V81.42V34.998
		C512,28.994,507.168,24.162,501.164,24.162z M51.254,430.143V139.115c0-3.558,2.883-6.445,6.442-6.445h396.61
		c3.558,0,6.446,2.886,6.446,6.445v291.028c0,3.558-2.887,6.445-6.446,6.445H57.695C54.137,436.588,51.254,433.701,51.254,430.143z
		 M458.996,60.479v13.835h-43.125V60.479h42.942H458.996z M458.996,89.326v13.836h-43.125V89.326h42.942H458.996z" style="fill: rgb(75, 75, 75);"></path>
	<rect x="91.121" y="301.979" class="st0" width="138.782" height="101.101" style="fill: rgb(75, 75, 75);"></rect>
	<rect x="265.246" y="301.979" class="st0" width="155.675" height="14.64" style="fill: rgb(75, 75, 75);"></rect>
	<rect x="265.246" y="335.807" class="st0" width="155.675" height="14.644" style="fill: rgb(75, 75, 75);"></rect>
	<rect x="265.246" y="369.643" class="st0" width="104.418" height="14.64" style="fill: rgb(75, 75, 75);"></rect>
</g>
</svg>
