<!--?xml version="1.0" encoding="utf-8"?-->
<!-- Generator: Adobe Illustrator 19.1.1, SVG Export Plug-In . SVG Version: 6.00 Build 0)  -->
<svg version="1.1" id="_x31_0" xmlns="http://www.w3.org/2000/svg" xmlns:xlink="http://www.w3.org/1999/xlink" x="0px" y="0px" viewBox="0 0 512 512" style="width: 64px; height: 64px; opacity: 1;" xml:space="preserve">
<style type="text/css">
	.st0{fill:#374149;}
</style>
<g>
	<path class="st0" d="M489.178,117.387l-96.672-40.945l-37.679-16.024v0.07l-0.157-0.07v39.027l120.492,50.993
		c0.77,0.32,1.09,1.218,0.77,1.992l-131.23,310.042c-0.321,0.711-1.161,1.098-1.93,0.774l-46.296-19.61h-47.825l-44.312-0.148
		l0.348,0.148h-0.41l124.48,52.66c8.285,3.5,17.082,3.63,25.098,1.274c0.218-0.066,0.438-0.129,0.656-0.195
		c6.637-2.086,12.594-5.973,17.211-11.39c0.133-0.156,0.266-0.313,0.394-0.469c2.242-2.722,4.258-5.676,5.699-9.086l131.23-310.046
		C517.084,147.414,508.147,125.422,489.178,117.387z" style="fill: rgb(75, 75, 75);"></path>
	<polygon class="st0" points="354.67,174.031 380.323,184.835 394.421,151.539 394.467,151.418 394.467,151.418 394.53,151.27 
		367.542,139.812 367.421,139.762 367.417,139.762 367.272,139.699 354.67,169.406 353.066,173.16 353.058,173.179 353.058,173.179 
		352.995,173.328 	" style="fill: rgb(75, 75, 75);"></polygon>
	<polygon class="st0" points="422.054,202.519 436.264,168.953 408.998,157.379 394.858,190.843 394.85,190.859 394.85,190.859 
		394.788,191.007 	" style="fill: rgb(75, 75, 75);"></polygon>
	<path class="st0" d="M297.956,424.343c9.386,0,18.004-3.469,24.562-9.258c6.75-5.851,11.379-14.145,12.539-23.469
		c0.191-1.543,0.324-3.086,0.324-4.695V165.804v-39.609v-34.91V52.254v-1.996c0-20.637-16.785-37.418-37.426-37.418H37.422
		C16.781,12.84,0,29.621,0,50.258v336.663c0,20.641,16.781,37.422,37.422,37.422h121.266h92.202H297.956z M35.942,50.258
		c0-0.832,0.644-1.476,1.48-1.476h157.273h103.262c0.774,0,1.481,0.644,1.481,1.476v25.848v34.851v18.516v247.034v10.414
		c0,0.84-0.707,1.485-1.481,1.485h-38.449h-93.492H78.637H37.422c-0.836,0-1.48-0.645-1.48-1.485V50.258z" style="fill: rgb(75, 75, 75);"></path>
	<polygon class="st0" points="127.953,81.32 127.953,81.09 127.953,81.09 127.953,80.93 65.969,80.93 65.969,157.25 127.953,157.25 
			" style="fill: rgb(75, 75, 75);"></polygon>
	<polygon class="st0" points="178.621,117.453 178.621,86.715 178.621,81.106 178.621,81.09 178.621,81.09 178.621,80.93 
		148.98,80.93 148.98,117.453 165.632,117.453 	" style="fill: rgb(75, 75, 75);"></polygon>
	<polygon class="st0" points="224.015,117.453 224.015,80.93 220.026,80.93 194.374,80.93 194.374,117.453 204.597,117.453 	" style="fill: rgb(75, 75, 75);"></polygon>
	<polygon class="st0" points="269.347,98.289 269.347,80.93 239.702,80.93 239.702,111.664 239.702,117.453 269.347,117.453 	" style="fill: rgb(75, 75, 75);"></polygon>
	<polygon class="st0" points="116.574,325.39 77.609,325.39 69.183,325.39 69.183,345.261 69.183,351.945 105.32,351.945 
		173.347,351.945 241.437,351.945 266.132,351.945 266.132,325.39 178.687,325.39 152.773,325.39 	" style="fill: rgb(75, 75, 75);"></polygon>
</g>
</svg>
