<!--?xml version="1.0" encoding="utf-8"?-->
<!-- Generator: Adobe Illustrator 19.1.1, SVG Export Plug-In . SVG Version: 6.00 Build 0)  -->
<svg version="1.1" id="_x31_0" xmlns="http://www.w3.org/2000/svg" xmlns:xlink="http://www.w3.org/1999/xlink" x="0px" y="0px" viewBox="0 0 512 512" style="width: 48px; height: 48px;" xml:space="preserve">
<style type="text/css">
	.st0{fill:#374149;}
</style>
<g>
	<path class="st0" d="M264.988,384.465c0-5.031,0.371-9.988,0.965-14.886c0.074-0.489,0.098-0.985,0.18-1.473
		c-0.008,0.004-0.02,0-0.027,0.004c0.007-0.055,0.007-0.11,0.015-0.164c-14.332,1.137-28.824,1.703-43.32,1.703
		c-67.137,0-134.621-11.762-179.11-36.852c-0.98-0.562-2.019-1.094-2.973-1.664c-0.102-0.058-0.195-0.125-0.297-0.187
		c-2.656-1.594-5.222-3.227-7.672-4.914c-0.003,0.023,0,0.047-0.003,0.066c-0.051-0.031-0.106-0.062-0.153-0.094
		c-0.164,0.809-0.164,1.699-0.164,2.508V441.23c0,39.11,85.187,70.77,190.371,70.77c35.094,0,67.801-3.554,95.969-9.726
		c6.789-1.454,13.43-3.016,19.762-4.782c-0.062-0.027-0.118-0.058-0.172-0.086c0.074-0.023,0.156-0.039,0.234-0.062
		C295.191,478.234,264.988,434.914,264.988,384.465z"></path>
	<path class="st0" d="M41.336,279.848c4.05,4.777,9.477,9.394,16.117,13.605c32.794,21.375,94.578,35.707,165.348,35.707
		c19.84,0,38.949-1.133,56.926-3.238c20.89-38.625,61.782-64.941,108.746-64.941c8.262,0,16.359,0.808,24.214,2.347
		c0.16-0.809,0.242-1.617,0.321-2.43c0.164-0.809,0.164-1.699,0.164-2.508V145.672c0-2.004-0.29-4.012-0.742-6.02
		c-0.031-0.222-0.027-0.426-0.062-0.648c-0.016,0.012-0.035,0.023-0.054,0.035c-0.012-0.055-0.02-0.114-0.032-0.168
		c-43.89,29.473-116.93,43.238-189.48,43.238c-67.098,0-134.558-11.801-179.047-36.883c-0.714-0.406-1.476-0.793-2.175-1.203
		c-0.466-0.273-0.887-0.566-1.348-0.84c-2.317-1.398-4.598-2.808-6.754-4.273c-0.004,0.019-0.008,0.035-0.012,0.05
		c-0.047-0.031-0.098-0.058-0.145-0.09c-0.566,2.27-0.89,4.535-0.89,6.801V258.39c0,0.809,0,1.699,0.164,2.508
		C33.16,267.539,36.234,273.855,41.336,279.848z"></path>
	<path class="st0" d="M44.008,95.226c4.453,4.614,10.285,8.989,17.168,13.035c33.605,20.082,93.445,33.363,161.625,33.363
		c68.179,0,128.019-13.281,161.625-33.363c6.883-4.046,12.711-8.422,17.168-13.035c5.504-5.586,9.23-11.5,10.687-17.652
		c0.649-2.27,0.891-4.454,0.891-6.723C413.172,31.742,327.984,0,222.801,0C117.617,0,32.43,31.742,32.43,70.851
		c0,2.27,0.242,4.454,0.89,6.723C34.778,83.726,38.504,89.641,44.008,95.226z"></path>
	<path class="st0" d="M452.93,320.09c-16.519-16.515-39.191-26.718-64.457-26.718h-0.242c-23.805,0.082-45.426,9.23-61.621,24.293
		c-0.891,0.809-1.699,1.618-2.508,2.426c-11.989,11.985-20.57,27.129-24.457,44.133c-1.539,6.559-2.266,13.282-2.266,20.242
		c0,25.184,10.202,47.855,26.722,64.375c16.515,16.519,39.187,26.722,64.371,26.722h0.812c24.938-0.242,47.286-10.367,63.645-26.722
		c16.519-16.52,26.641-39.191,26.641-64.375C479.57,359.282,469.449,336.61,452.93,320.09z M373.172,428.355v-25.347
		c0-1.782-1.461-3.238-3.16-3.238h-25.426c-1.781,0-3.156-1.457-3.156-3.156V372.32c0-1.703,1.375-3.16,3.156-3.16h25.426
		c1.699,0,3.16-1.457,3.16-3.238v-19.836v-5.507c0-1.782,1.457-3.157,3.238-3.157h16.839h7.371c1.782,0,3.157,1.375,3.157,3.157
		v25.343c0,1.782,1.457,3.238,3.238,3.238h6.157h19.191c1.782,0,3.238,1.457,3.238,3.16v24.294c0,1.699-1.457,3.156-3.238,3.156
		h-19.191h-6.157c-1.781,0-3.238,1.457-3.238,3.238v25.347c0,1.782-1.375,3.157-3.157,3.157h-24.21
		C374.629,431.512,373.172,430.137,373.172,428.355z"></path>
</g>
</svg>
