<!--?xml version="1.0" encoding="utf-8"?-->
<!-- Generator: Adobe Illustrator 18.1.1, SVG Export Plug-In . SVG Version: 6.00 Build 0)  -->

<svg version="1.1" id="_x31_0" xmlns="http://www.w3.org/2000/svg" xmlns:xlink="http://www.w3.org/1999/xlink" x="0px" y="0px" viewBox="0 0 512 512" style="width: 48px; height: 48px; opacity: 1;" xml:space="preserve">
<style type="text/css">
	.st0{fill:#374149;}
</style>
<g>
	<path class="st0" d="M297.21,305.048c-3.836,3.262-7.881,6.112-12.051,8.69c-0.48,0.271-0.928,0.606-1.407,0.868l0.027,0.027
		c-0.054,0.032-0.104,0.068-0.158,0.1l126.041,126.045l12.498-2.067l7.342-1.104l-0.09-0.09l0.226-0.041L297.21,305.048z" style="fill: rgb(75, 75, 75);"></path>
	<path class="st0" d="M496.006,392.274l-20.664-20.664l-7.989-7.989l-11.106-2.058l-4.899-0.905l-0.909-4.899l-4.551-24.586
		l-20.999-3.89l0.29-2.769l1.818-17.258l-12.273-12.269l-70.566-70.566c7.374-41.071-3.393-84.426-30.205-117.631l-1.213-1.502
		l-1.366-1.366l-88.11-88.109c-0.859-0.859-1.863-1.466-2.764-2.257c-0.999-0.882-2.03-1.719-3.085-2.52
		c-1.864-1.407-3.768-2.682-5.758-3.822c-1.131-0.651-2.28-1.254-3.452-1.814c-2.067-0.995-4.148-1.854-6.302-2.574
		c-1.145-0.385-2.307-0.724-3.483-1.032c-2.362-0.619-4.722-1.076-7.13-1.375c-0.973-0.122-1.945-0.212-2.931-0.28
		c-2.61-0.186-5.198-0.186-7.808,0c-0.982,0.068-1.958,0.158-2.927,0.28c-2.41,0.299-4.772,0.756-7.129,1.375
		c-1.176,0.308-2.339,0.647-3.488,1.032c-2.149,0.719-4.225,1.578-6.288,2.565c-1.181,0.57-2.343,1.176-3.478,1.827
		c-1.978,1.136-3.868,2.402-5.718,3.8c-1.072,0.814-2.117,1.665-3.135,2.556c-0.891,0.787-1.886,1.389-2.741,2.239L21.063,140.398
		c-21.398,21.402-21.398,56.221,0,77.622l88.086,88.086l1.362,1.362l1.497,1.208c6.383,5.162,13.237,9.536,20.29,13.494
		c0.244,0.14,0.488,0.281,0.733,0.416c18.036,9.993,37.85,15.996,58.116,17.806c0.294,0.027,0.584,0.054,0.878,0.082
		c3.999,0.33,7.994,0.511,12.01,0.515c0.032,0,0.064,0,0.095,0c0.063,0,0.127-0.004,0.19-0.004
		c8.468-0.014,16.946-0.566,25.328-2.072l159.86,159.86L402.735,512l18.457-3.067l54.073-8.993l29.748-4.95l0.646-30.15
		l0.991-46.065l0.334-15.522L496.006,392.274z M469.298,464.062l-54.072,8.994L240.609,298.434
		c-34.878,12.671-75.365,6.505-105.738-18.046l-88.086-88.086c-7.233-7.234-7.233-18.954,0-26.184L171.364,41.536
		c7.234-7.234,18.954-7.234,26.184,0l88.109,88.104c24.537,30.39,30.698,70.869,18.022,105.738l85.326,85.327l-3.814,36.217
		l29.486,5.46l5.46,29.486l29.486,5.46l20.664,20.664L469.298,464.062z" style="fill: rgb(75, 75, 75);"></path>
	<path class="st0" d="M164.375,118.756c-4.714-4.714-12.431-4.714-17.145,0l-23.225,23.225c-4.714,4.718-4.714,12.431,0,17.145
		l32.543,32.544c4.714,4.714,12.427,4.714,17.146,0l23.225-23.225c4.714-4.714,4.714-12.431,0-17.145L164.375,118.756z" style="fill: rgb(75, 75, 75);"></path>
</g>
</svg>
